# xmcd CD database file
#
# Track frame offsets:
#	150
#	21704
#	44023
#	65444
#	78458
#	95382
#	112272
#	126078
#	141706
#	160566
#	170627
#	187921
#	208446
#	217730
#	236760
#	252241
#	272073
#
# Disc length: 3877 seconds
#
# Revision: 1
# Processed by: cddbd v1.5.2PL0 Copyright (c) Steve Scherf et al.
# Submitted via: CDex 1.51
#
DISCID=080f2311
DTITLE=Gal Costa - Live at the Blue Note
DYEAR=2006
DGENRE=Rhythmic Soul
TTITLE0=Fotografia
TTITLE1=Desafinado
TTITLE2=Chega de saudade
TTITLE3=Camisa amarela
TTITLE4=Pra machucar meu coração
TTITLE5=Ave-Maria no morro
TTITLE6=Nada além
TTITLE7=I fall in love too easily
TTITLE8=Corcovado
TTITLE9=Triste
TTITLE10=Wave
TTITLE11=Pot-pourri: Coisa mais linda, As time goes by
TTITLE12=Samba do avião
TTITLE13=Pot-pourri: Sábado em Copacabana, Copacabana
TTITLE14=Garota de Ipanema
TTITLE15=A felicidade
TTITLE16=Aquarela do Brasil
EXTD=YEAR: 2006
EXTT0=
EXTT1=
EXTT2=
EXTT3=
EXTT4=
EXTT5=
EXTT6=
EXTT7=
EXTT8=
EXTT9=
EXTT10=
EXTT11=
EXTT12=
EXTT13=
EXTT14=
EXTT15=
EXTT16=
PLAYORDER=
